<?xml version="1.0" encoding="UTF-8"?>
<svg id="Layer_1" data-name="Layer 1" xmlns="http://www.w3.org/2000/svg" version="1.1" viewBox="0 0 24 24">
  <defs>
    <style>
      .cls-1 {
        fill: #0666dc;
      }

      .cls-1, .cls-2 {
        stroke-width: 0px;
      }

      .cls-2 {
        fill: #fff;
      }
    </style>
  </defs>
  <path class="cls-1" d="M21.3,7.4c0-.1-.1-.2-.2-.3L15.2,1.2c0,0-.2-.1-.3-.2-.1,0-.2,0-.3,0H4.3c-.5,0-.9.2-1.2.5-.3.3-.5.8-.5,1.2v18.8c0,.5.2.9.5,1.2.3.3.8.5,1.2.5h15.3c.5,0,.9-.2,1.2-.5s.5-.7.5-1.2V7.8c0-.1,0-.2,0-.3Z"/>
  <g>
    <path class="cls-2" d="M11.1,17.3l-3.7-2c-.1,0-.2-.2-.2-.3v-4c0-.2.3-.4.5-.3l3.7,2.1c0,0,.2.2.2.3v4c0,.2-.3.4-.5.3Z"/>
    <path class="cls-2" d="M8.1,9.4l3.7-2.1c0,0,.2,0,.3,0l3.7,2.1c.2.1.2.4,0,.5l-3.7,2.1c0,0-.2,0-.3,0l-3.7-2.1c-.2-.1-.2-.4,0-.5Z"/>
    <path class="cls-2" d="M16.6,15.2l-3.8,2.1c-.2.1-.5,0-.5-.3v-4c0-.1,0-.2.2-.3l3.8-2.1c.2-.1.5,0,.5.3v4c0,.1,0,.2-.2.3Z"/>
  </g>
</svg>